<?xml version="1.0" encoding="UTF-8"?>
<!DOCTYPE svg  PUBLIC '-//W3C//DTD SVG 1.1//EN'  'http://www.w3.org/Graphics/SVG/1.1/DTD/svg11.dtd'>
<svg enable-background="new 0 0 251.39 267.571" version="1.1" viewBox="0 0 251.39 267.57" xml:space="preserve" xmlns="http://www.w3.org/2000/svg">
<polygon points="118.67 169.3 121.46 173.03 126.32 174.77 131.18 173.03 133.97 169.3" fill="none" stroke="#000" stroke-miterlimit="10" stroke-width="2"/>
<line x1="145.23" x2="159.55" y1="168.14" y2="124.82" fill="none" stroke="#000" stroke-miterlimit="10" stroke-width="2"/>
<polyline points="114.53 183.42 116.6 186.62 126.32 193.01 136.04 186.62 138.64 183.42" fill="none" stroke="#000" stroke-miterlimit="10" stroke-width="2"/>
<polyline points="108.31 168.1 93.479 124.82 93.479 114.7 98.007 99.515 121.06 103.75" fill="none" stroke="#000" stroke-miterlimit="10" stroke-width="2"/>
<polyline points="138.64 183.42 114.53 183.42 109.54 183.42 104.55 180.23 104.55 169.3 108.31 168.1 118.67 164.78 121.06 138.4 121.06 103.75 126.85 101.63 131.57 103.75 131.57 138.4 133.97 164.78 145.23 168.14 159.55 124.82 159.55 114.7 155.66 99.515 131.57 103.75" fill="none" stroke="#000" stroke-miterlimit="10" stroke-width="2"/>
<polyline points="145.23 168.14 149.15 169.3 149.15 180.23 145.56 183.42 138.64 183.42" fill="none" stroke="#000" stroke-miterlimit="10" stroke-width="2"/>
<polyline points="93.62 124.82 79.45 124.82 51.924 107.11 41.27 93.854 80.871 99.515 95.025 109.51" fill="none" stroke="#000" stroke-miterlimit="10" stroke-width="2"/>
<line x1="80.871" x2="93.479" y1="99.515" y2="124.82" fill="none" stroke="#000" stroke-miterlimit="10" stroke-width="2"/>
<polyline points="100.84 100.04 89.217 82.025 35.764 66.397 27.418 44.555 27.418 36.919 30.082 44.555 41.27 61.78 87.671 71.37 67.552 52.191 61.514 24.488" fill="none" stroke="#000" stroke-miterlimit="10" stroke-width="2"/>
<polyline points="95.743 68.216 102 82.025 118.67 103.11" fill="none" stroke="#000" stroke-miterlimit="10" stroke-width="2"/>
<polyline points="109.54 91.523 98.007 41.312 105.2 25.33 92.546 40.737 96.825 70.602" fill="none" stroke="#000" stroke-miterlimit="10" stroke-width="2"/>
<polyline points="78.408 14.275 87.671 5.218 75.366 12.144 69.787 34.752" fill="none" stroke="#000" stroke-miterlimit="10" stroke-width="2"/>
<line x1="78.408" x2="73.278" y1="14.275" y2="44.555" fill="none" stroke="#000" stroke-miterlimit="10" stroke-width="2"/>
<line x1="150.63" x2="133.97" y1="82.249" y2="103.34" fill="none" stroke="#000" stroke-miterlimit="10" stroke-width="2"/>
<polyline points="156.89 68.439 177.27 50.639 186.5 24.712 188.1 10.505 191.12 24.712 185.08 52.415 164.96 71.594 211.36 62.004 222.55 44.778 225.22 37.143 225.22 44.778 216.87 66.621 163.42 82.249 151.59 100.23" fill="none" stroke="#000" stroke-miterlimit="10" stroke-width="2"/>
<line x1="156.89" x2="150.63" y1="68.439" y2="82.249" fill="none" stroke="#000" stroke-miterlimit="10" stroke-width="2"/>
<polyline points="143.1 91.748 154.63 41.536 147.44 25.553 160.09 40.96 155.81 70.826" fill="none" stroke="#000" stroke-miterlimit="10" stroke-width="2"/>
<polyline points="179.36 44.778 174.23 14.499 164.96 5.442 177.27 12.368 182.85 34.976" fill="none" stroke="#000" stroke-miterlimit="10" stroke-width="2"/>
<polyline points="121.06 138.4 110.34 127.66 93.479 124.82" fill="none" stroke="#000" stroke-miterlimit="10" stroke-width="2"/>
<polyline points="114.53 131.86 107.04 131.21 104.55 126.69" fill="none" stroke="#000" stroke-miterlimit="10" stroke-width="2"/>
<polyline points="159.55 124.82 173.75 124.82 201.27 107.11 211.93 93.854 172.33 99.515 158.17 109.51" fill="none" stroke="#000" stroke-miterlimit="10" stroke-width="2"/>
<line x1="172.33" x2="159.55" y1="99.515" y2="124.82" fill="none" stroke="#000" stroke-miterlimit="10" stroke-width="2"/>
<polyline points="131.57 138.4 142.7 127.59 159.55 124.75" fill="none" stroke="#000" stroke-miterlimit="10" stroke-width="2"/>
<polyline points="138.5 131.79 145.99 131.14 148.49 126.61" fill="none" stroke="#000" stroke-miterlimit="10" stroke-width="2"/>
<polyline points="69.576 34.161 61.514 24.488 64.533 10.281 66.131 24.488 75.366 50.415 95.743 68.216" fill="none" stroke="#000" stroke-miterlimit="10" stroke-width="2"/>
<line x1="73.117" x2="67.552" y1="44.103" y2="52.191" fill="none" stroke="#000" stroke-miterlimit="10" stroke-width="2"/>
<line x1="69.932" x2="78.408" y1="34.161" y2="13.942" fill="none" stroke="#000" stroke-miterlimit="10" stroke-width="2"/>
<line x1="174.23" x2="182.85" y1="14.499" y2="34.976" fill="none" stroke="#000" stroke-miterlimit="10" stroke-width="2"/>
<line x1="191.12" x2="182.85" y1="24.712" y2="34.976" fill="none" stroke="#000" stroke-miterlimit="10" stroke-width="2"/>
<line x1="179.36" x2="185.08" y1="44.778" y2="52.415" fill="none" stroke="#000" stroke-miterlimit="10" stroke-width="2"/>
	<path d="m70.343 219.58c0.028 0.116-0.062 0.19-0.09 0.216-0.078 0.072-0.095 0.114-0.095 0.216v4.93c0.478-0.967 1.363-1.562 2.323-1.562 1.481 0 3.031 1.426 3.031 4.495 0 3.188-1.605 4.718-3.151 4.718-0.904 0-1.736-0.521-2.231-1.379l-0.413 1.162h-0.769v-12.796h1.395zm0.012 6.273c-0.171 0.483-0.197 1.05-0.197 1.845 0 0.76-6e-3 1.277 0.046 1.734 0.19 1.675 1.329 1.915 1.844 1.915 0.737 0 2.229-0.491 2.229-3.182 0-3.102-1.501-3.597-2.21-3.597-0.746 1e-3 -1.431 0.493-1.712 1.285z"/>
	<path d="m79.091 223.6-0.043 1.692c0.494-1.255 1.611-1.905 2.712-1.905 0.847 0 1.541 0.394 2.015 0.96l-0.555 1.327c-0.127-0.142-0.181-0.293-0.28-0.44-0.211-0.315-0.61-0.657-1.244-0.657-0.533 0-1.433 0.218-2.118 1.479-0.513 0.944-0.53 1.527-0.53 2.059v4.281h-1.196v-8.796h1.239z"/>
	<path d="m88.663 232.61c-1.899 0-3.533-1.884-3.533-4.557 0-2.715 1.647-4.654 3.568-4.654 1.713 0 3.355 1.592 3.355 4.625 1e-3 2.913-1.605 4.586-3.39 4.586zm-2.278-4.676c0 2.167 1.086 3.482 2.287 3.482 1.101 0 2.187-1.122 2.187-3.334 0-2.413-1.154-3.506-2.241-3.506-1.154 0-2.233 1.203-2.233 3.358z"/>
	<path d="m94.179 223.58c0.044 0.149 0 0.278-0.027 0.38-0.041 0.154-0.037 0.224-0.016 0.351l1.096 6.34 1.296-6.24h0.727l1.595 6.224c0.649-4.999 0.727-5.976 0.697-7.037h1.097c-0.325 2.948-0.743 5.883-1.253 8.796h-1.111l-1.396-5.692-1.324 5.692h-1.067l-1.524-8.813h1.21z"/>
	<path d="m107.4 225.98c-0.029-8e-3 -0.086-0.039-0.086-0.154 0-0.067 0.011-0.113-0.035-0.184-0.287-0.432-1.018-1.207-2.092-1.207-0.853 0-1.588 0.493-1.588 1.2 0 0.295 0.13 0.721 0.747 1.068 0.705 0.396 1.918 0.596 2.77 1.152 0.892 0.584 1.106 1.378 1.106 1.986 0 1.326-1.076 2.743-3.136 2.743-1.145 0-2.297-0.436-3.182-1.394l0.683-1.378c0.081 0.044 0.074 0.154 0.073 0.181-3e-3 0.077-0.01 0.131 0.045 0.205 0.239 0.316 1.066 1.225 2.358 1.225 1.077 0 1.938-0.567 1.938-1.391 0-0.317-0.13-0.78-0.752-1.12-0.556-0.303-1.388-0.536-2.026-0.805-0.409-0.172-1.836-0.731-1.836-2.266 0-1.312 1.147-2.452 2.898-2.452 1.115 0 2.115 0.483 2.812 1.377l-0.697 1.214z"/>
	<path d="m116.46 226.5c0.074 0.51 0.098 1.074 0.052 1.679h-5.349c0.09 2.63 1.549 3.278 2.558 3.278 0.75 0 1.46-0.348 1.951-0.988l0.655 0.746c-0.646 0.904-1.622 1.364-2.698 1.364-2.047 0-3.619-1.566-3.619-4.494 0-3.207 1.665-4.708 3.466-4.708 1.234 0 2.642 0.765 2.984 3.123zm-1.115 0.616c0.142-1.425-0.731-2.675-1.953-2.675-0.809 0-1.956 0.603-2.191 2.675h4.144z"/>
	<path d="m120.34 223.6-0.042 1.692c0.494-1.255 1.611-1.905 2.712-1.905 0.847 0 1.54 0.394 2.015 0.96l-0.555 1.327c-0.127-0.142-0.181-0.293-0.28-0.44-0.211-0.315-0.61-0.657-1.245-0.657-0.533 0-1.433 0.218-2.118 1.479-0.512 0.944-0.53 1.527-0.53 2.059v4.281h-1.196v-8.796h1.239z"/>
	<path d="m140.08 219.58h1.268c5e-3 0.132-0.057 0.227-0.091 0.288-0.06 0.106-0.065 0.159-0.065 0.26l0.014 11.436c0 0.266 0.011 0.543 0.072 0.813h-1.184c-0.059-0.214-0.07-0.438-0.07-0.647v-0.764c-0.474 0.986-1.365 1.606-2.329 1.606-1.458 0-2.997-1.418-2.997-4.661 0-3.357 1.735-4.547 3.172-4.547 1.041 0 1.848 0.608 2.211 1.512v-5.296zm-4.232 8.103c0 2.895 1.268 3.667 2.122 3.667 0.785 0 1.566-0.613 1.857-1.667 0.122-0.443 0.156-0.936 0.156-1.599 0-0.98-0.032-1.471-0.126-1.879-0.3-1.305-1.272-1.714-1.935-1.714-0.866 1e-3 -2.074 0.692-2.074 3.192z"/>
	<path d="m149.46 226.5c0.074 0.51 0.099 1.074 0.054 1.679h-5.351c0.09 2.63 1.55 3.278 2.559 3.278 0.75 0 1.46-0.348 1.951-0.988l0.654 0.746c-0.645 0.904-1.621 1.364-2.697 1.364-2.047 0-3.62-1.566-3.62-4.494 0-3.207 1.665-4.708 3.467-4.708 1.234 0 2.641 0.765 2.983 3.123zm-1.114 0.616c0.142-1.425-0.731-2.675-1.952-2.675-0.81 0-1.956 0.603-2.192 2.675h4.144z"/>
	<path d="m154.86 221c0.058 0.194-0.061 0.313-0.094 0.52-0.078 0.487-0.19 2.069-0.19 2.069h2.463v1.146h-2.478c-0.096 1.143-0.144 2.288-0.144 3.438 0 1.273 0.04 1.611 0.048 1.688 0.121 1.055 0.706 1.418 1.27 1.418 0.465 0 1.049-0.248 1.688-0.802l0.369 1.096c-0.637 0.543-1.512 0.98-2.408 0.98-0.771 0-1.36-0.349-1.719-0.936-0.438-0.721-0.444-1.604-0.444-2.392 0-1.492 0.052-2.987 0.157-4.491h-1.766l0.015-1.129h1.794l0.143-2.356 1.296-0.249z"/>
	<path d="m165.96 226.5c0.073 0.51 0.099 1.074 0.052 1.679h-5.349c0.089 2.63 1.549 3.278 2.558 3.278 0.748 0 1.461-0.348 1.952-0.988l0.654 0.746c-0.646 0.904-1.622 1.364-2.7 1.364-2.047 0-3.617-1.566-3.617-4.494 0-3.207 1.665-4.708 3.466-4.708 1.234 0 2.641 0.765 2.984 3.123zm-1.117 0.616c0.143-1.425-0.73-2.675-1.953-2.675-0.807 0-1.956 0.603-2.19 2.675h4.143z"/>
	<path d="m173.64 226.19c-0.13-0.115-0.04-0.295-0.103-0.443-0.044-0.104-0.662-1.151-1.95-1.151-1.385 0-2.488 1.25-2.488 3.253 0 2.053 1.119 3.487 2.589 3.487 0.754 0 1.486-0.39 1.996-1.063l0.685 0.929c-0.72 0.903-1.728 1.395-2.781 1.395-2.131 0-3.713-1.957-3.713-4.605 0-2.637 1.574-4.573 3.788-4.573 1.213 0 2.226 0.613 2.82 1.628l-0.843 1.143z"/>
	<path d="m179.6 221c0.058 0.194-0.062 0.313-0.094 0.52-0.078 0.487-0.191 2.069-0.191 2.069h2.463v1.146h-2.477c-0.096 1.143-0.143 2.288-0.143 3.438 0 1.273 0.039 1.611 0.047 1.688 0.122 1.055 0.706 1.418 1.27 1.418 0.465 0 1.048-0.248 1.688-0.802l0.369 1.096c-0.637 0.543-1.512 0.98-2.41 0.98-0.769 0-1.358-0.349-1.715-0.936-0.439-0.721-0.444-1.604-0.444-2.392 0-1.492 0.052-2.987 0.154-4.491h-1.765l0.014-1.129h1.795l0.143-2.356 1.296-0.249z"/>
<g fill="#555">
	<path d="m5.438 259.3c-0.029-7e-3 -0.085-0.034-0.085-0.132 0-0.057 0.011-0.097-0.035-0.155-0.284-0.367-1.007-1.024-2.071-1.024-0.843 0-1.572 0.418-1.572 1.019 0 0.25 0.13 0.612 0.739 0.906 0.697 0.337 1.898 0.506 2.741 0.979 0.882 0.496 1.095 1.171 1.095 1.687 0 1.126-1.064 2.329-3.103 2.329-1.133 0-2.273-0.369-3.148-1.184l0.676-1.169c0.08 0.037 0.073 0.131 0.072 0.153-3e-3 0.065-0.01 0.111 0.045 0.175 0.236 0.268 1.055 1.038 2.333 1.038 1.065 0 1.917-0.481 1.917-1.18 0-0.27-0.129-0.663-0.744-0.951-0.55-0.257-1.374-0.455-2.005-0.684-0.405-0.146-1.817-0.62-1.817-1.923 0-1.114 1.135-2.082 2.867-2.082 1.103 0 2.094 0.41 2.783 1.169l-0.688 1.029z"/>
	<path d="m11.951 257.27v6.523h1.747v0.944h-4.833v-0.944h1.902v-5.565h-1.803v-0.958h2.987zm0.282-2.403c0 0.462-0.378 0.839-0.846 0.839-0.467 0-0.845-0.377-0.845-0.839s0.378-0.838 0.846-0.838c0.467 0 0.845 0.376 0.845 0.838z"/>
	<path d="m16.013 257.28h1.085l-0.014 0.733c0.343-0.521 0.915-0.917 1.526-0.917 0.668 0 1.203 0.47 1.32 1.086 0.29-0.66 0.956-1.085 1.671-1.085 0.419 0 0.881 0.161 1.167 0.593 0.33 0.498 0.304 1.129 0.304 1.746v5.312h-1.113v-5.298c0-0.339 0.037-0.766-0.101-1.08-0.121-0.275-0.351-0.416-0.592-0.416-0.453 0-0.744 0.464-0.868 0.673-0.275 0.464-0.313 0.784-0.313 1.176v4.932h-1.099v-5.186c0-0.308 0.023-0.667-0.073-0.979-0.126-0.409-0.425-0.574-0.691-0.574-0.299 0-0.632 0.194-0.902 0.696-0.211 0.393-0.236 0.718-0.236 1.069v4.974h-1.071v-7.455z"/>
	<path d="m25.724 257.28v1.142c0.507-0.815 1.398-1.311 2.356-1.311 1.467 0 3.026 1.177 3.026 3.809 0 2.735-1.605 4.014-3.129 4.014-0.906 0-1.741-0.448-2.239-1.186v3.706h-1.198l-0.014-10.174h1.198zm0.195 1.914c-0.164 0.388-0.197 0.841-0.197 1.47 0 1.081-4e-3 1.695 0.214 2.198 0.294 0.679 0.998 1.029 1.706 1.029 0.699 0 2.242-0.377 2.242-2.729 0-2.708-1.58-3.05-2.235-3.05-0.752 1e-3 -1.446 0.412-1.73 1.082z"/>
	<path d="m36.393 253.89v9.905h2.198v0.944h-5.594v-0.944h2.212v-8.961h-2.113v-0.944h3.297z"/>
	<path d="m44.597 257.27v6.523h1.747v0.944h-4.833v-0.944h1.902v-5.565h-1.804v-0.958h2.988zm0.282-2.403c0 0.462-0.378 0.839-0.846 0.839-0.467 0-0.845-0.377-0.845-0.839s0.378-0.838 0.846-0.838c0.466 0 0.845 0.376 0.845 0.838z"/>
	<path d="m55.928 254.8-0.536 1.085c-0.05 5e-3 -0.124-0.024-0.132-0.136-6e-3 -0.07 7e-3 -0.114-0.045-0.194-0.314-0.474-0.912-0.854-1.63-0.854-0.617 0-1.192 0.275-1.5 0.826-0.279 0.5-0.271 1.071-0.271 1.611v0.578h2.438v0.93h-2.438v6.087h-1.127v-6.087h-1.62v-0.93h1.62v-0.733c0-0.662 0.027-1.283 0.41-1.905 0.521-0.848 1.501-1.299 2.55-1.299 0.937 0 1.748 0.378 2.281 1.021z"/>
	<path d="m58.411 257.28c9e-3 0.147-0.073 0.229-0.073 0.35 0 0.048 0.012 0.084 0.031 0.13l2.184 5.495 1.423-4.002c0.229-0.642 0.44-1.304 0.563-1.986h1.226c-0.219 0.729-0.479 1.445-0.747 2.156l-2.325 6.157c-0.159 0.422-0.317 0.815-0.643 1.182-0.497 0.56-1.196 0.808-1.87 0.808-0.613 0-1.186-0.211-1.616-0.623l0.606-1.057c0.096 0.075 0.088 0.185 0.13 0.266 0.042 0.079 0.324 0.45 0.876 0.45 0.349 0 0.732-0.152 1.043-0.483 0.236-0.252 0.385-0.569 0.515-0.866l0.24-0.55-3.03-7.426h1.467z"/>
	<path d="m78.58 253.87h1.254c6e-3 0.111-0.056 0.192-0.09 0.244-0.058 0.09-0.065 0.136-0.065 0.221l0.014 9.708c0 0.226 0.012 0.462 0.07 0.69h-1.169c-0.06-0.181-0.07-0.372-0.07-0.55v-0.647c-0.468 0.837-1.35 1.362-2.304 1.362-1.442 0-2.966-1.203-2.966-3.956 0-2.852 1.717-3.861 3.139-3.861 1.03 0 1.829 0.517 2.187 1.283v-4.494zm-4.186 6.88c0 2.456 1.255 3.112 2.1 3.112 0.778 0 1.55-0.52 1.837-1.414 0.121-0.377 0.156-0.795 0.156-1.357 0-0.833-0.033-1.249-0.125-1.596-0.295-1.107-1.259-1.455-1.913-1.455-0.86 0-2.055 0.586-2.055 2.71z"/>
	<path d="m87.859 259.75c0.073 0.433 0.097 0.912 0.051 1.425h-5.293c0.089 2.233 1.534 2.783 2.531 2.783 0.742 0 1.445-0.295 1.931-0.839l0.648 0.634c-0.639 0.768-1.605 1.157-2.67 1.157-2.026 0-3.582-1.329-3.582-3.814 0-2.724 1.648-3.997 3.429-3.997 1.224 0 2.617 0.648 2.955 2.651zm-1.104 0.523c0.14-1.209-0.723-2.271-1.932-2.271-0.8 0-1.936 0.512-2.168 2.271h4.1z"/>
	<path d="m93.198 255.07c0.057 0.166-0.06 0.267-0.093 0.441-0.077 0.413-0.189 1.757-0.189 1.757h2.438v0.973h-2.452c-0.094 0.97-0.142 1.943-0.142 2.918 0 1.081 0.039 1.368 0.048 1.434 0.119 0.896 0.698 1.204 1.255 1.204 0.459 0 1.038-0.21 1.671-0.681l0.366 0.93c-0.631 0.462-1.496 0.833-2.384 0.833-0.762 0-1.345-0.296-1.698-0.794-0.434-0.612-0.44-1.361-0.44-2.031 0-1.267 0.051-2.536 0.155-3.813h-1.748l0.014-0.959h1.775l0.141-2 1.283-0.212z"/>
	<path d="m104.18 259.75c0.073 0.433 0.097 0.912 0.051 1.425h-5.293c0.089 2.233 1.533 2.783 2.531 2.783 0.742 0 1.445-0.295 1.931-0.839l0.648 0.634c-0.639 0.768-1.605 1.157-2.67 1.157-2.026 0-3.582-1.329-3.582-3.814 0-2.724 1.648-3.997 3.429-3.997 1.224 0 2.616 0.648 2.955 2.651zm-1.104 0.523c0.14-1.209-0.723-2.271-1.932-2.271-0.8 0-1.936 0.512-2.168 2.271h4.1z"/>
	<path d="m111.79 259.48c-0.129-0.098-0.041-0.251-0.103-0.377-0.043-0.087-0.656-0.977-1.929-0.977-1.371 0-2.463 1.062-2.463 2.761 0 1.743 1.108 2.961 2.562 2.961 0.748 0 1.472-0.33 1.976-0.901l0.676 0.789c-0.711 0.767-1.709 1.184-2.75 1.184-2.11 0-3.674-1.661-3.674-3.91 0-2.239 1.557-3.883 3.749-3.883 1.2 0 2.202 0.521 2.789 1.382l-0.833 0.971z"/>
	<path d="m117.68 255.07c0.057 0.166-0.06 0.267-0.093 0.441-0.077 0.413-0.189 1.757-0.189 1.757h2.438v0.973h-2.452c-0.094 0.97-0.142 1.943-0.142 2.918 0 1.081 0.039 1.368 0.048 1.434 0.119 0.896 0.698 1.204 1.255 1.204 0.459 0 1.038-0.21 1.671-0.681l0.366 0.93c-0.631 0.462-1.496 0.833-2.384 0.833-0.762 0-1.345-0.296-1.698-0.794-0.434-0.612-0.44-1.361-0.44-2.031 0-1.267 0.051-2.536 0.155-3.813h-1.748l0.014-0.959h1.775l0.141-2 1.283-0.212z"/>
	<path d="m126.21 257.27v6.523h1.747v0.944h-4.833v-0.944h1.902v-5.565h-1.804v-0.958h2.988zm0.283-2.403c0 0.462-0.378 0.839-0.846 0.839-0.467 0-0.845-0.377-0.845-0.839s0.378-0.838 0.846-0.838c0.466 0 0.845 0.376 0.845 0.838z"/>
	<path d="m130.76 257.28h1.198v1.311c0.548-0.831 1.467-1.493 2.479-1.493 0.85 0 1.614 0.478 1.985 1.316 0.266 0.6 0.27 1.215 0.27 1.798v4.522h-1.155v-4.495c0-0.526-4e-3 -1.167-0.407-1.649-0.269-0.319-0.638-0.472-1.012-0.472-0.788 0-1.505 0.659-1.79 1.038-0.31 0.413-0.37 0.778-0.37 1.28v4.298h-1.198v-7.454z"/>
	<path d="m143.35 257.75c0.577-0.484 1.321-0.722 2.071-0.663l0.142 0.959c-0.143-0.025-0.286-0.037-0.431-0.037-0.46 0-0.91 0.125-1.303 0.36 0.247 0.373 0.38 0.813 0.38 1.265 0 1.377-1.21 2.555-2.688 2.555-0.323 0-0.644-0.058-0.947-0.17-0.073 0.061-0.533 0.439-0.533 0.834 0 0.235 0.167 0.411 0.452 0.49 0.159 0.043 0.509 0.094 1.065 0.094 0.846 0 1.746-0.105 2.524 0.211 0.793 0.322 1.16 0.974 1.16 1.619 0 1.001-0.905 2.281-3.432 2.281-2.614 0-3.373-0.954-3.373-1.768 0-0.592 0.412-1.141 1.213-1.651-0.471-0.248-0.598-0.684-0.598-0.994 0-0.479 0.306-0.983 0.844-1.44-0.684-0.444-1.103-1.203-1.103-2.02 0-1.457 1.304-2.638 2.788-2.638 0.683 0 1.309 0.254 1.769 0.713zm-3.833 7.753c0 0.261 0.133 0.671 0.735 0.911 0.564 0.224 1.199 0.243 1.539 0.243 0.5 0 1.13-0.031 1.677-0.326 0.513-0.276 0.698-0.667 0.698-0.99 0-0.328-0.198-0.764-0.891-0.868-0.428-0.064-1.029-0.022-1.58-0.043-0.57-0.021-0.967-0.054-1.249-0.09-0.428 0.235-0.929 0.627-0.929 1.163zm1.994-4.259c0.907 0 1.643-0.735 1.643-1.639s-0.735-1.639-1.642-1.639-1.643 0.735-1.643 1.639 0.736 1.639 1.642 1.639z"/>
	<path d="m156.35 257.28c0.01 0.147-0.072 0.229-0.072 0.35 0 0.048 0.012 0.084 0.03 0.13l2.184 5.495 1.424-4.002c0.228-0.642 0.44-1.304 0.563-1.986h1.226c-0.22 0.729-0.479 1.445-0.747 2.156l-2.324 6.157c-0.16 0.422-0.317 0.815-0.644 1.182-0.497 0.56-1.195 0.808-1.869 0.808-0.613 0-1.186-0.211-1.616-0.623l0.606-1.057c0.096 0.075 0.088 0.185 0.13 0.266 0.041 0.079 0.323 0.45 0.876 0.45 0.35 0 0.733-0.152 1.043-0.483 0.236-0.252 0.386-0.569 0.516-0.866l0.239-0.55-3.029-7.426h1.464z"/>
	<path d="m166.45 264.93c-1.88 0-3.496-1.6-3.496-3.869 0-2.305 1.63-3.951 3.531-3.951 1.694 0 3.32 1.352 3.32 3.927 0 2.473-1.589 3.893-3.355 3.893zm-2.254-3.971c0 1.84 1.074 2.956 2.263 2.956 1.089 0 2.164-0.952 2.164-2.83 0-2.048-1.143-2.977-2.218-2.977-1.142 0-2.209 1.023-2.209 2.851z"/>
	<path d="m172.67 257.28v4.157c0 0.5-2e-3 1.083 0.264 1.609 0.297 0.59 0.842 0.912 1.425 0.912 0.719 0 1.382-0.481 1.724-1.105 0.249-0.455 0.294-0.898 0.294-1.473v-4.101h1.184v6.777c0 0.219 0.013 0.454 0.084 0.677h-1.239c-0.031-0.192-0.033-0.388-0.028-0.578l0.014-0.563c-0.485 0.823-1.368 1.325-2.303 1.325-0.971 0-1.883-0.542-2.318-1.521-0.292-0.655-0.298-1.31-0.296-1.959l0.014-4.157h1.181z"/>
	<path d="m181.46 257.28-0.043 1.438c0.488-1.066 1.595-1.617 2.685-1.617 0.838 0 1.524 0.333 1.993 0.814l-0.549 1.127c-0.126-0.12-0.179-0.249-0.277-0.374-0.209-0.268-0.604-0.559-1.231-0.559-0.527 0-1.418 0.186-2.096 1.257-0.507 0.802-0.524 1.297-0.524 1.747v3.635h-1.184v-7.468h1.226z"/>
	<path d="m197.29 253.87c0.027 0.098-0.062 0.161-0.089 0.183-0.077 0.062-0.095 0.097-0.095 0.184v4.185c0.473-0.819 1.349-1.325 2.299-1.325 1.466 0 2.999 1.211 2.999 3.816 0 2.706-1.589 4.006-3.118 4.006-0.896 0-1.718-0.443-2.208-1.171l-0.408 0.986h-0.761v-10.863h1.381zm0.012 5.326c-0.17 0.41-0.195 0.891-0.195 1.565 0 0.646-6e-3 1.085 0.045 1.473 0.188 1.422 1.315 1.626 1.825 1.626 0.729 0 2.205-0.417 2.205-2.701 0-2.634-1.485-3.053-2.187-3.053-0.738 0-1.416 0.417-1.693 1.09z"/>
	<path d="m205.95 257.28-0.043 1.438c0.488-1.066 1.595-1.617 2.685-1.617 0.838 0 1.524 0.333 1.993 0.814l-0.549 1.127c-0.126-0.12-0.179-0.249-0.277-0.374-0.209-0.268-0.604-0.559-1.231-0.559-0.527 0-1.418 0.186-2.096 1.257-0.507 0.802-0.524 1.297-0.524 1.747v3.635h-1.184v-7.468h1.226z"/>
	<path d="m215.42 264.93c-1.88 0-3.496-1.6-3.496-3.869 0-2.305 1.63-3.951 3.531-3.951 1.694 0 3.32 1.352 3.32 3.927 1e-3 2.473-1.588 3.893-3.355 3.893zm-2.253-3.971c0 1.84 1.074 2.956 2.263 2.956 1.089 0 2.164-0.952 2.164-2.83 0-2.048-1.143-2.977-2.218-2.977-1.142 0-2.209 1.023-2.209 2.851z"/>
	<path d="m220.88 257.27c0.043 0.127 0 0.236-0.026 0.323-0.041 0.13-0.037 0.188-0.016 0.297l1.085 5.382 1.282-5.298h0.719l1.578 5.284c0.643-4.244 0.72-5.072 0.69-5.975h1.085c-0.321 2.504-0.735 4.995-1.24 7.468h-1.1l-1.381-4.832-1.31 4.832h-1.057l-1.508-7.481h1.199z"/>
	<path d="m233.96 259.3c-0.029-7e-3 -0.086-0.034-0.085-0.132 0-0.057 0.011-0.097-0.035-0.155-0.284-0.367-1.008-1.024-2.07-1.024-0.844 0-1.572 0.418-1.572 1.019 0 0.25 0.13 0.612 0.739 0.906 0.697 0.337 1.898 0.506 2.741 0.979 0.883 0.496 1.095 1.171 1.095 1.687 0 1.126-1.064 2.329-3.104 2.329-1.133 0-2.272-0.369-3.148-1.184l0.677-1.169c0.08 0.037 0.073 0.131 0.072 0.153-3e-3 0.065-0.011 0.111 0.045 0.175 0.236 0.268 1.056 1.038 2.334 1.038 1.065 0 1.918-0.481 1.918-1.18 0-0.27-0.129-0.663-0.745-0.951-0.55-0.257-1.373-0.455-2.004-0.684-0.405-0.146-1.817-0.62-1.817-1.923 0-1.114 1.135-2.082 2.867-2.082 1.104 0 2.094 0.41 2.783 1.169l-0.691 1.029z"/>
	<path d="m242.92 259.75c0.073 0.433 0.097 0.912 0.052 1.425h-5.294c0.089 2.233 1.533 2.783 2.531 2.783 0.742 0 1.445-0.295 1.931-0.839l0.648 0.634c-0.639 0.768-1.605 1.157-2.67 1.157-2.026 0-3.582-1.329-3.582-3.814 0-2.724 1.648-3.997 3.43-3.997 1.223 0 2.615 0.648 2.954 2.651zm-1.103 0.523c0.14-1.209-0.724-2.271-1.933-2.271-0.8 0-1.936 0.512-2.168 2.271h4.101z"/>
	<path d="m246.76 257.28-0.043 1.438c0.488-1.066 1.595-1.617 2.685-1.617 0.838 0 1.524 0.333 1.993 0.814l-0.549 1.127c-0.126-0.12-0.179-0.249-0.277-0.374-0.209-0.268-0.604-0.559-1.231-0.559-0.527 0-1.418 0.186-2.096 1.257-0.507 0.802-0.524 1.297-0.524 1.747v3.635h-1.184v-7.468h1.226z"/>
</g>
</svg>
